<?xml version="1.0" encoding="UTF-8"?>
<!--Generator: Apple Native CoreSVG 123-->
<!DOCTYPE svg
PUBLIC "-//W3C//DTD SVG 1.1//EN"
       "http://www.w3.org/Graphics/SVG/1.1/DTD/svg11.dtd">
<svg version="1.1" xmlns="http://www.w3.org/2000/svg" xmlns:xlink="http://www.w3.org/1999/xlink" width="3300" height="2200">
 <!--glyph: "", point size: 1.000000, font version: "Version 15.0d4e20", template writer version: "2"-->
 <g id="Notes">
  <rect height="2200" id="artboard" style="fill:white;opacity:1" width="3300" x="0" y="0"/>
  <line id="" style="fill:none;stroke:black;opacity:1;stroke-width:0.5;" x1="263" x2="3036" y1="292" y2="292"/>
  <text style="stroke:none;fill:black;font-family:-apple-system,&quot;SF Pro Display&quot;,&quot;SF Pro Text&quot;,Helvetica,sans-serif;font-weight:bold;" transform="matrix(1 0 0 1 263 322)">Weight/Scale Variations</text>
  <text style="stroke:none;fill:black;font-family:-apple-system,&quot;SF Pro Display&quot;,&quot;SF Pro Text&quot;,Helvetica,sans-serif;text-anchor:middle;" transform="matrix(1 0 0 1 559.711 322)">Ultralight</text>
  <text style="stroke:none;fill:black;font-family:-apple-system,&quot;SF Pro Display&quot;,&quot;SF Pro Text&quot;,Helvetica,sans-serif;text-anchor:middle;" transform="matrix(1 0 0 1 856.422 322)">Thin</text>
  <text style="stroke:none;fill:black;font-family:-apple-system,&quot;SF Pro Display&quot;,&quot;SF Pro Text&quot;,Helvetica,sans-serif;text-anchor:middle;" transform="matrix(1 0 0 1 1153.13 322)">Light</text>
  <text style="stroke:none;fill:black;font-family:-apple-system,&quot;SF Pro Display&quot;,&quot;SF Pro Text&quot;,Helvetica,sans-serif;text-anchor:middle;" transform="matrix(1 0 0 1 1449.84 322)">Regular</text>
  <text style="stroke:none;fill:black;font-family:-apple-system,&quot;SF Pro Display&quot;,&quot;SF Pro Text&quot;,Helvetica,sans-serif;text-anchor:middle;" transform="matrix(1 0 0 1 1746.56 322)">Medium</text>
  <text style="stroke:none;fill:black;font-family:-apple-system,&quot;SF Pro Display&quot;,&quot;SF Pro Text&quot;,Helvetica,sans-serif;text-anchor:middle;" transform="matrix(1 0 0 1 2043.27 322)">Semibold</text>
  <text style="stroke:none;fill:black;font-family:-apple-system,&quot;SF Pro Display&quot;,&quot;SF Pro Text&quot;,Helvetica,sans-serif;text-anchor:middle;" transform="matrix(1 0 0 1 2339.98 322)">Bold</text>
  <text style="stroke:none;fill:black;font-family:-apple-system,&quot;SF Pro Display&quot;,&quot;SF Pro Text&quot;,Helvetica,sans-serif;text-anchor:middle;" transform="matrix(1 0 0 1 2636.69 322)">Heavy</text>
  <text style="stroke:none;fill:black;font-family:-apple-system,&quot;SF Pro Display&quot;,&quot;SF Pro Text&quot;,Helvetica,sans-serif;text-anchor:middle;" transform="matrix(1 0 0 1 2933.4 322)">Black</text>
  <line id="" style="fill:none;stroke:black;opacity:1;stroke-width:0.5;" x1="263" x2="3036" y1="1903" y2="1903"/>
  <g id="" transform="matrix(1 0 0 1 263 1933)">
   <path d="M 9.24805 0.830078 C 13.5547 0.830078 17.1387 -2.74414 17.1387 -7.05078 C 17.1387 -11.3574 13.5449 -14.9316 9.23828 -14.9316 C 4.94141 -14.9316 1.36719 -11.3574 1.36719 -7.05078 C 1.36719 -2.74414 4.95117 0.830078 9.24805 0.830078 Z M 9.24805 -0.654297 C 5.70312 -0.654297 2.87109 -3.49609 2.87109 -7.05078 C 2.87109 -10.6055 5.69336 -13.4473 9.23828 -13.4473 C 12.793 -13.4473 15.6348 -10.6055 15.6445 -7.05078 C 15.6543 -3.49609 12.8027 -0.654297 9.24805 -0.654297 Z M 9.22852 -3.42773 C 9.69727 -3.42773 9.9707 -3.74023 9.9707 -4.25781 L 9.9707 -6.31836 L 12.1973 -6.31836 C 12.6953 -6.31836 13.0371 -6.57227 13.0371 -7.04102 C 13.0371 -7.51953 12.7148 -7.7832 12.1973 -7.7832 L 9.9707 -7.7832 L 9.9707 -10.0098 C 9.9707 -10.5273 9.69727 -10.8496 9.22852 -10.8496 C 8.75977 -10.8496 8.50586 -10.5078 8.50586 -10.0098 L 8.50586 -7.7832 L 6.29883 -7.7832 C 5.78125 -7.7832 5.44922 -7.51953 5.44922 -7.04102 C 5.44922 -6.57227 5.80078 -6.31836 6.29883 -6.31836 L 8.50586 -6.31836 L 8.50586 -4.25781 C 8.50586 -3.75977 8.75977 -3.42773 9.22852 -3.42773 Z"/>
  </g>
  <g id="" transform="matrix(1 0 0 1 281.506 1933)">
   <path d="M 11.709 2.91016 C 17.1484 2.91016 21.6699 -1.60156 21.6699 -7.05078 C 21.6699 -12.4902 17.1387 -17.0117 11.6992 -17.0117 C 6.25 -17.0117 1.74805 -12.4902 1.74805 -7.05078 C 1.74805 -1.60156 6.25977 2.91016 11.709 2.91016 Z M 11.709 1.25 C 7.09961 1.25 3.41797 -2.44141 3.41797 -7.05078 C 3.41797 -11.6504 7.08984 -15.3516 11.6992 -15.3516 C 16.2988 -15.3516 20 -11.6504 20.0098 -7.05078 C 20.0195 -2.44141 16.3086 1.25 11.709 1.25 Z M 11.6797 -2.41211 C 12.207 -2.41211 12.5195 -2.77344 12.5195 -3.33984 L 12.5195 -6.23047 L 15.5762 -6.23047 C 16.123 -6.23047 16.5039 -6.51367 16.5039 -7.03125 C 16.5039 -7.55859 16.1426 -7.86133 15.5762 -7.86133 L 12.5195 -7.86133 L 12.5195 -10.9277 C 12.5195 -11.5039 12.207 -11.8555 11.6797 -11.8555 C 11.1621 -11.8555 10.8789 -11.4844 10.8789 -10.9277 L 10.8789 -7.86133 L 7.83203 -7.86133 C 7.25586 -7.86133 6.89453 -7.55859 6.89453 -7.03125 C 6.89453 -6.51367 7.28516 -6.23047 7.83203 -6.23047 L 10.8789 -6.23047 L 10.8789 -3.33984 C 10.8789 -2.79297 11.1621 -2.41211 11.6797 -2.41211 Z"/>
  </g>
  <g id="" transform="matrix(1 0 0 1 304.914 1933)">
   <path d="M 14.9707 5.67383 C 21.9336 5.67383 27.6855 -0.078125 27.6855 -7.04102 C 27.6855 -14.0039 21.9238 -19.7559 14.9609 -19.7559 C 7.99805 -19.7559 2.25586 -14.0039 2.25586 -7.04102 C 2.25586 -0.078125 8.00781 5.67383 14.9707 5.67383 Z M 14.9707 3.85742 C 8.92578 3.85742 4.08203 -1.00586 4.08203 -7.04102 C 4.08203 -13.0762 8.91602 -17.9395 14.9609 -17.9395 C 20.9961 -17.9395 25.8594 -13.0762 25.8691 -7.04102 C 25.8789 -1.00586 21.0059 3.85742 14.9707 3.85742 Z M 14.9414 -1.06445 C 15.5176 -1.06445 15.8594 -1.45508 15.8594 -2.06055 L 15.8594 -6.13281 L 20.0977 -6.13281 C 20.6934 -6.13281 21.1133 -6.46484 21.1133 -7.02148 C 21.1133 -7.59766 20.7227 -7.93945 20.0977 -7.93945 L 15.8594 -7.93945 L 15.8594 -12.1875 C 15.8594 -12.8027 15.5176 -13.1934 14.9414 -13.1934 C 14.3848 -13.1934 14.0625 -12.7832 14.0625 -12.1875 L 14.0625 -7.93945 L 9.82422 -7.93945 C 9.20898 -7.93945 8.80859 -7.59766 8.80859 -7.02148 C 8.80859 -6.46484 9.23828 -6.13281 9.82422 -6.13281 L 14.0625 -6.13281 L 14.0625 -2.06055 C 14.0625 -1.47461 14.3848 -1.06445 14.9414 -1.06445 Z"/>
  </g>
  <text style="stroke:none;fill:black;font-family:-apple-system,&quot;SF Pro Display&quot;,&quot;SF Pro Text&quot;,Helvetica,sans-serif;font-weight:bold;" transform="matrix(1 0 0 1 263 1953)">Design Variations</text>
  <text style="stroke:none;fill:black;font-family:-apple-system,&quot;SF Pro Display&quot;,&quot;SF Pro Text&quot;,Helvetica,sans-serif;" transform="matrix(1 0 0 1 263 1971)">Symbols are supported in up to nine weights and three scales.</text>
  <text style="stroke:none;fill:black;font-family:-apple-system,&quot;SF Pro Display&quot;,&quot;SF Pro Text&quot;,Helvetica,sans-serif;" transform="matrix(1 0 0 1 263 1989)">For optimal layout with text and other symbols, vertically align</text>
  <text style="stroke:none;fill:black;font-family:-apple-system,&quot;SF Pro Display&quot;,&quot;SF Pro Text&quot;,Helvetica,sans-serif;" transform="matrix(1 0 0 1 263 2007)">symbols with the adjacent text.</text>
  <rect height="14" id="" style="fill:#00AEEF;stroke:none;opacity:0.4;" width="3" x="776" y="1919"/>
  <g id="" transform="matrix(1 0 0 1 779 1933)">
   <path d="M 10.957 0 L 12.8027 0 L 7.60742 -14.0918 L 5.86914 -14.0918 L 0.673828 0 L 2.51953 0 L 3.93555 -4.0332 L 9.54102 -4.0332 Z M 6.66016 -11.8164 L 6.81641 -11.8164 L 9.02344 -5.52734 L 4.45312 -5.52734 Z"/>
  </g>
  <rect height="14" id="" style="fill:#00AEEF;stroke:none;opacity:0.4;" width="3" x="792.477" y="1919"/>
  <text style="stroke:none;fill:black;font-family:-apple-system,&quot;SF Pro Display&quot;,&quot;SF Pro Text&quot;,Helvetica,sans-serif;font-weight:bold;" transform="matrix(1 0 0 1 776 1953)">Side Bearings</text>
  <text style="stroke:none;fill:black;font-family:-apple-system,&quot;SF Pro Display&quot;,&quot;SF Pro Text&quot;,Helvetica,sans-serif;" transform="matrix(1 0 0 1 776 1971)">Horizontal padding on the left and right side of each symbol</text>
  <text style="stroke:none;fill:black;font-family:-apple-system,&quot;SF Pro Display&quot;,&quot;SF Pro Text&quot;,Helvetica,sans-serif;" transform="matrix(1 0 0 1 776 1989)">can be adjusted by modifying the width of the blue rectangles.</text>
  <text style="stroke:none;fill:black;font-family:-apple-system,&quot;SF Pro Display&quot;,&quot;SF Pro Text&quot;,Helvetica,sans-serif;" transform="matrix(1 0 0 1 776 2007)">Modifications are automatically applied proportionally to all</text>
  <text style="stroke:none;fill:black;font-family:-apple-system,&quot;SF Pro Display&quot;,&quot;SF Pro Text&quot;,Helvetica,sans-serif;" transform="matrix(1 0 0 1 776 2025)">scales and weights.</text>
  <g id="" transform="matrix(1 0 0 1 1289 1933)">
   <path d="M 2.96875 2.35352 L 3.80859 3.19336 C 4.84375 4.22852 6.12305 4.15039 7.19727 2.97852 L 16.1621 -6.82617 C 16.5527 -6.74805 16.9629 -6.8457 17.4902 -7.02148 C 18.1738 -7.25586 18.2715 -7.25586 18.3887 -7.13867 C 18.5352 -7.01172 18.4863 -6.89453 18.2422 -6.25 C 17.8809 -5.33203 17.8125 -4.79492 18.5547 -4.02344 L 19.4238 -3.13477 C 20.2734 -2.24609 21.3281 -2.26562 22.2168 -3.14453 L 25.0586 -5.97656 C 25.9473 -6.86523 25.957 -7.92969 25.0781 -8.7793 L 24.1797 -9.64844 C 23.4082 -10.4004 22.8711 -10.3516 21.9629 -9.98047 C 21.3184 -9.72656 21.2012 -9.6875 21.0645 -9.81445 C 20.9375 -9.93164 20.9473 -10.0391 21.1816 -10.7129 C 21.5332 -11.6895 21.5723 -12.2852 20.752 -13.0957 L 19.3359 -14.5117 C 15.1953 -18.6133 11.2305 -18.7402 7.65625 -15.4395 C 7.08008 -14.9023 6.99219 -14.1504 7.53906 -13.6133 L 7.79297 -13.3594 C 8.22266 -12.9297 8.86719 -12.8418 9.41406 -13.1152 C 11.0645 -13.9453 12.2559 -14.0234 13.457 -12.9785 L 13.0273 -11.416 C 12.8516 -10.8008 12.793 -10.3418 12.9199 -9.93164 L 3.18359 -1.04492 C 2.02148 0.0292969 1.93359 1.32812 2.96875 2.35352 Z M 8.96484 -14.4922 C 8.89648 -14.5703 8.86719 -14.6582 8.99414 -14.7559 C 11.709 -17.2852 15.0391 -16.8457 18.3496 -13.5254 L 19.6973 -12.168 C 20.0879 -11.7773 20.0977 -11.582 19.8828 -10.8691 C 19.6582 -10.127 19.502 -9.53125 20.1465 -8.88672 C 20.8105 -8.22266 21.2891 -8.41797 22.207 -8.63281 C 22.9004 -8.79883 23.0664 -8.79883 23.4473 -8.41797 L 24.0918 -7.77344 C 24.4043 -7.48047 24.4141 -7.32422 24.0723 -6.97266 L 21.2207 -4.13086 C 20.8887 -3.79883 20.7227 -3.79883 20.4297 -4.10156 L 19.7852 -4.75586 C 19.4141 -5.13672 19.4141 -5.30273 19.5801 -6.01562 C 19.7852 -6.88477 19.9805 -7.38281 19.3262 -8.04688 C 18.6719 -8.7207 18.0762 -8.57422 17.3438 -8.33008 C 16.5625 -8.06641 16.3281 -8.06641 15.8984 -8.49609 L 14.6094 -9.78516 C 14.1699 -10.2246 14.1309 -10.4395 14.2676 -10.9082 L 15.0293 -13.3984 C 13.3887 -15.2832 11.4941 -15.5566 9.20898 -14.4434 C 9.11133 -14.3945 9.04297 -14.4141 8.96484 -14.4922 Z M 3.96484 1.36719 C 3.52539 0.927734 3.54492 0.537109 4.14062 -0.00976562 L 13.7402 -8.81836 L 15 -7.55859 L 6.17188 2.02148 C 5.625 2.60742 5.24414 2.64648 4.79492 2.19727 Z"/>
  </g>
  <text style="stroke:none;fill:black;font-family:-apple-system,&quot;SF Pro Display&quot;,&quot;SF Pro Text&quot;,Helvetica,sans-serif;font-weight:bold;" transform="matrix(1 0 0 1 1289 1953)">Exporting</text>
  <text style="stroke:none;fill:black;font-family:-apple-system,&quot;SF Pro Display&quot;,&quot;SF Pro Text&quot;,Helvetica,sans-serif;" transform="matrix(1 0 0 1 1289 1971)">Symbols should be outlined when exporting to ensure the</text>
  <text style="stroke:none;fill:black;font-family:-apple-system,&quot;SF Pro Display&quot;,&quot;SF Pro Text&quot;,Helvetica,sans-serif;" transform="matrix(1 0 0 1 1289 1989)">design is preserved when submitting to Xcode.</text>
  <text id="template-version" style="stroke:none;fill:black;font-family:-apple-system,&quot;SF Pro Display&quot;,&quot;SF Pro Text&quot;,Helvetica,sans-serif;text-anchor:end;" transform="matrix(1 0 0 1 3036 1933)">Template v.0.1</text>
  <text style="stroke:none;fill:black;font-family:-apple-system,&quot;SF Pro Display&quot;,&quot;SF Pro Text&quot;,Helvetica,sans-serif;text-anchor:end;" transform="matrix(1 0 0 1 3036 1951)">Generated from </text>
  <text style="stroke:none;fill:black;font-family:-apple-system,&quot;SF Pro Display&quot;,&quot;SF Pro Text&quot;,Helvetica,sans-serif;text-anchor:end;" transform="matrix(1 0 0 1 3036 1969)">Typeset at 100 points</text>
 </g>
 <g fill="#000000" fill-rule="nonzero" id="Symbols" transform="matrix(1 0 0 1 0 0)">
  <g id="Ultralight-S" transform="matrix(1 0 0 1 542.435 624)">
   <path d="M 7.47374 14.6694 C 7.47374 16.5342 7.47374 24.8577 7.47374 24.8577 L 0.00942953 24.8577 L 0.00942953 37.3161 L 7.47374 37.3161 L 7.47374 74.338 L 22.807 74.338 L 22.807 37.3171 L 33.0964 37.3171 C 33.0964 37.3171 34.06 31.3434 34.5271 24.8118 C 33.1879 24.8118 22.865 24.8118 22.865 24.8118 C 22.865 24.8118 22.865 17.5639 22.865 16.2935 C 22.865 15.0204 24.5368 13.3078 26.1891 13.3078 C 27.8384 13.3078 31.3193 13.3078 34.5433 13.3078 C 34.5433 11.6116 34.5433 5.75076 34.5433 0.33795 C 30.2393 0.33795 25.3428 0.33795 23.1845 0.33795 C 7.09472 0.33709 7.47374 12.8078 7.47374 14.6694 Z" id="path"/>
  </g>
  <g id="Thin-S" transform="matrix(1 0 0 1 838.024 624)">
   <path d="M 8.46332 14.6101 C 8.46332 16.5001 8.46332 24.9361 8.46332 24.9361 L 0.898143 24.9361 L 0.898143 37.5628 L 8.46332 37.5628 L 8.46332 75.085 L 24.0038 75.085 L 24.0038 37.5639 L 34.4322 37.5639 C 34.4322 37.5639 35.4089 31.5095 35.8823 24.8896 C 34.525 24.8896 24.0626 24.8896 24.0626 24.8896 C 24.0626 24.8896 24.0626 17.5437 24.0626 16.2562 C 24.0626 14.9658 25.757 13.2301 27.4316 13.2301 C 29.1032 13.2301 32.6311 13.2301 35.8987 13.2301 C 35.8987 11.5109 35.8987 5.57093 35.8987 0.0849713 C 31.5366 0.0849713 26.5739 0.0849713 24.3864 0.0849713 C 8.07918 0.0840995 8.46332 12.7234 8.46332 14.6101 Z" id="path"/>
  </g>
  <g id="Light-S" transform="matrix(1 0 0 1 1134.54 623)">
   <path d="M 8.39374 14.9974 C 8.39374 16.9379 8.39374 25.5988 8.39374 25.5988 L 0.626819 25.5988 L 0.626819 38.5623 L 8.39374 38.5623 L 8.39374 77.085 L 24.3486 77.085 L 24.3486 38.5633 L 35.0551 38.5633 C 35.0551 38.5633 36.0578 32.3475 36.5439 25.551 C 35.1504 25.551 24.409 25.551 24.409 25.551 C 24.409 25.551 24.409 18.0093 24.409 16.6874 C 24.409 15.3626 26.1485 13.5806 27.8679 13.5806 C 29.584 13.5806 33.206 13.5806 36.5607 13.5806 C 36.5607 11.8157 36.5607 5.71724 36.5607 0.0849902 C 32.0823 0.0849902 26.9873 0.0849902 24.7414 0.0849902 C 7.99935 0.084095 8.39374 13.0604 8.39374 14.9974 Z" id="path"/>
  </g>
  <g id="Regular-S" transform="matrix(1 0 0 1 1431.08 622)">
   <path d="M 8.43217 15.6911 C 8.43217 17.6567 8.43217 26.4302 8.43217 26.4302 L 0.564382 26.4302 L 0.564382 39.5619 L 8.43217 39.5619 L 8.43217 78.585 L 24.5943 78.585 L 24.5943 39.563 L 35.4398 39.563 C 35.4398 39.563 36.4555 33.2664 36.9479 26.3817 C 35.5363 26.3817 24.6554 26.3817 24.6554 26.3817 C 24.6554 26.3817 24.6554 18.7421 24.6554 17.403 C 24.6554 16.061 26.4176 14.2559 28.1592 14.2559 C 29.8976 14.2559 33.5667 14.2559 36.9649 14.2559 C 36.9649 12.468 36.9649 6.29037 36.9649 0.584976 C 32.4283 0.584976 27.2672 0.584976 24.9922 0.584976 C 8.03266 0.58407 8.43217 13.7289 8.43217 15.6911 Z" id="path"/>
  </g>
  <g id="Medium-S" transform="matrix(1 0 0 1 1727.5 622)">
   <path d="M 8.72512 15.6375 C 8.72512 17.6031 8.72512 26.3766 8.72512 26.3766 L 0.857332 26.3766 L 0.857332 39.5084 L 8.72512 39.5084 L 8.72512 78.5314 L 24.8872 78.5314 L 24.8872 39.5094 L 35.7328 39.5094 C 35.7328 39.5094 36.7485 33.2129 37.2408 26.3282 C 35.8292 26.3282 24.9483 26.3282 24.9483 26.3282 C 24.9483 26.3282 24.9483 18.6885 24.9483 17.3494 C 24.9483 16.0075 26.7105 14.2023 28.4522 14.2023 C 30.1906 14.2023 33.8596 14.2023 37.2579 14.2023 C 37.2579 12.4144 37.2579 6.23678 37.2579 0.531385 C 32.7213 0.531385 27.5601 0.531385 25.2851 0.531385 C 8.32561 0.530479 8.72512 13.6753 8.72512 15.6375 Z" id="path"/>
  </g>
  <g id="Semibold-S" transform="matrix(1 0 0 1 2024.99 622)">
   <path d="M 7.94487 15.6143 C 7.94487 17.5799 7.94487 26.3533 7.94487 26.3533 L 0.0770819 26.3533 L 0.0770819 39.4851 L 7.94487 39.4851 L 7.94487 78.5081 L 24.107 78.5081 L 24.107 39.4862 L 34.9525 39.4862 C 34.9525 39.4862 35.9682 33.1896 36.4606 26.3049 C 35.049 26.3049 24.1681 26.3049 24.1681 26.3049 C 24.1681 26.3049 24.1681 18.6653 24.1681 17.3262 C 24.1681 15.9842 25.9303 14.1791 27.6719 14.1791 C 29.4103 14.1791 33.0794 14.1791 36.4776 14.1791 C 36.4776 12.3912 36.4776 6.21353 36.4776 0.508139 C 31.941 0.508139 26.7799 0.508139 24.5049 0.508139 C 7.54536 0.507232 7.94487 13.6521 7.94487 15.6143 Z" id="path"/>
  </g>
  <g id="Bold-S" transform="matrix(1 0 0 1 2321.38 621)">
   <path d="M 8.12975 16.2543 C 8.12975 18.2452 8.12975 27.1311 8.12975 27.1311 L 0.161095 27.1311 L 0.161095 40.4312 L 8.12975 40.4312 L 8.12975 79.9546 L 24.4991 79.9546 L 24.4991 40.4323 L 35.4836 40.4323 C 35.4836 40.4323 36.5124 34.055 37.0111 27.0821 C 35.5813 27.0821 24.561 27.0821 24.561 27.0821 C 24.561 27.0821 24.561 19.3445 24.561 17.9882 C 24.561 16.629 26.3457 14.8008 28.1097 14.8008 C 29.8704 14.8008 33.5865 14.8008 37.0283 14.8008 C 37.0283 12.9899 37.0283 6.7331 37.0283 0.954557 C 32.4336 0.954557 27.2062 0.954557 24.902 0.954557 C 7.72512 0.953638 8.12975 14.267 8.12975 16.2543 Z" id="path"/>
  </g>
  <g id="Heavy-S" transform="matrix(1 0 0 1 2617.68 621)">
   <path d="M 8.5448 16.1774 C 8.5448 18.1682 8.5448 27.0541 8.5448 27.0541 L 0.576145 27.0541 L 0.576145 40.3542 L 8.5448 40.3542 L 8.5448 79.8776 L 24.9141 79.8776 L 24.9141 40.3553 L 35.8987 40.3553 C 35.8987 40.3553 36.9274 33.978 37.4261 27.0051 C 35.9964 27.0051 24.976 27.0051 24.976 27.0051 C 24.976 27.0051 24.976 19.2675 24.976 17.9112 C 24.976 16.5521 26.7608 14.7238 28.5248 14.7238 C 30.2855 14.7238 34.0015 14.7238 37.4434 14.7238 C 37.4434 12.9129 37.4434 6.65611 37.4434 0.877574 C 32.8486 0.877574 27.6213 0.877574 25.3171 0.877574 C 8.14017 0.876655 8.5448 14.19 8.5448 16.1774 Z" id="path"/>
  </g>
  <g id="Black-S" transform="matrix(1 0 0 1 2914 621)">
   <path d="M 8.80298 15.8007 C 8.80298 17.8168 8.80298 26.8152 8.80298 26.8152 L 0.733458 26.8152 L 0.733458 40.2837 L 8.80298 40.2837 L 8.80298 80.3073 L 25.3795 80.3073 L 25.3795 40.2848 L 36.5031 40.2848 C 36.5031 40.2848 37.5449 33.8267 38.0499 26.7655 C 36.6021 26.7655 25.4422 26.7655 25.4422 26.7655 C 25.4422 26.7655 25.4422 18.93 25.4422 17.5565 C 25.4422 16.1802 27.2495 14.3287 29.0359 14.3287 C 30.8188 14.3287 34.5819 14.3287 38.0674 14.3287 C 38.0674 12.495 38.0674 6.15896 38.0674 0.307273 C 33.4144 0.307273 28.1209 0.307273 25.7876 0.307273 C 8.39323 0.306343 8.80298 13.7882 8.80298 15.8007 Z" id="path"/>
  </g>
  <g id="Ultralight-M" transform="matrix(1 0 0 1 537.279 1044)">
   <path d="M 9.84721 18.7124 C 9.84721 21.1064 9.84721 31.792 9.84721 31.792 L 0.264645 31.792 L 0.264645 47.7859 L 9.84721 47.7859 L 9.84721 95.3139 L 29.5318 95.3139 L 29.5318 47.7872 L 42.7411 47.7872 C 42.7411 47.7872 43.9782 40.1183 44.5779 31.7331 C 42.8586 31.7331 29.6063 31.7331 29.6063 31.7331 C 29.6063 31.7331 29.6063 22.4284 29.6063 20.7974 C 29.6063 19.163 31.7525 16.9644 33.8737 16.9644 C 35.991 16.9644 40.4597 16.9644 44.5987 16.9644 C 44.5987 14.7868 44.5987 7.26279 44.5987 0.313918 C 39.0733 0.313918 32.7873 0.313918 30.0164 0.313918 C 9.36062 0.312814 9.84721 16.3226 9.84721 18.7124 Z" id="path"/>
  </g>
  <g id="Thin-M" transform="matrix(1 0 0 1 833.869 1043)">
   <path d="M 9.83679 19.414 C 9.83679 21.8333 9.83679 32.6313 9.83679 32.6313 L 0.153358 32.6313 L 0.153358 48.7935 L 9.83679 48.7935 L 9.83679 96.8219 L 29.7286 96.8219 L 29.7286 48.7949 L 43.0769 48.7949 C 43.0769 48.7949 44.3271 41.0452 44.9331 32.5717 C 43.1957 32.5717 29.8038 32.5717 29.8038 32.5717 C 29.8038 32.5717 29.8038 23.1691 29.8038 21.521 C 29.8038 19.8693 31.9726 17.6476 34.1162 17.6476 C 36.2558 17.6476 40.7715 17.6476 44.954 17.6476 C 44.954 15.4471 44.954 7.84389 44.954 0.821868 C 39.3705 0.821868 33.0183 0.821868 30.2183 0.821868 C 9.34508 0.820752 9.83679 16.999 9.83679 19.414 Z" id="path"/>
  </g>
  <g id="Light-M" transform="matrix(1 0 0 1 1130.34 1043)">
   <path d="M 9.94847 19.0997 C 9.94847 21.5442 9.94847 32.4547 9.94847 32.4547 L 0.164171 32.4547 L 0.164171 48.7853 L 9.94847 48.7853 L 9.94847 97.3139 L 30.0475 97.3139 L 30.0475 48.7866 L 43.5349 48.7866 C 43.5349 48.7866 44.798 40.9563 45.4103 32.3945 C 43.6549 32.3945 30.1235 32.3945 30.1235 32.3945 C 30.1235 32.3945 30.1235 22.8939 30.1235 21.2287 C 30.1235 19.5598 32.3149 17.3149 34.4808 17.3149 C 36.6427 17.3149 41.2055 17.3149 45.4315 17.3149 C 45.4315 15.0915 45.4315 7.40909 45.4315 0.313918 C 39.7899 0.313918 33.3715 0.313918 30.5423 0.313918 C 9.45164 0.312791 9.94847 16.6596 9.94847 19.0997 Z" id="path"/>
  </g>
  <g id="Regular-M" transform="matrix(1 0 0 1 1425.88 1041)">
   <path d="M 10.722 19.6012 C 10.722 22.1213 10.722 33.3693 10.722 33.3693 L 0.63506 33.3693 L 0.63506 50.2049 L 10.722 50.2049 L 10.722 100.234 L 31.4426 100.234 L 31.4426 50.2063 L 45.3471 50.2063 C 45.3471 50.2063 46.6494 42.1337 47.2806 33.3072 C 45.4708 33.3072 31.521 33.3072 31.521 33.3072 C 31.521 33.3072 31.521 23.5128 31.521 21.796 C 31.521 20.0755 33.7801 17.7612 36.0131 17.7612 C 38.2418 17.7612 42.9457 17.7612 47.3024 17.7612 C 47.3024 15.469 47.3024 7.54901 47.3024 0.2344 C 41.4863 0.2344 34.8694 0.2344 31.9527 0.2344 C 10.2098 0.233238 10.722 17.0856 10.722 19.6012 Z" id="Facebook"/>
  </g>
  <g id="Medium-M" transform="matrix(1 0 0 1 1723.25 1042)">
   <path d="M 10.1962 19.4335 C 10.1962 21.9284 10.1962 33.0639 10.1962 33.0639 L 0.210197 33.0639 L 0.210197 49.7311 L 10.1962 49.7311 L 10.1962 99.2604 L 30.7097 99.2604 L 30.7097 49.7325 L 44.4752 49.7325 C 44.4752 49.7325 45.7643 41.7407 46.3893 33.0024 C 44.5976 33.0024 30.7872 33.0024 30.7872 33.0024 C 30.7872 33.0024 30.7872 23.306 30.7872 21.6064 C 30.7872 19.9031 33.0238 17.6119 35.2344 17.6119 C 37.4408 17.6119 42.0977 17.6119 46.4109 17.6119 C 46.4109 15.3427 46.4109 7.50184 46.4109 0.260379 C 40.6529 0.260379 34.1022 0.260379 31.2147 0.260379 C 9.68917 0.259228 10.1962 16.9431 10.1962 19.4335 Z" id="path"/>
  </g>
  <g id="Semibold-M" transform="matrix(1 0 0 1 2019.71 1041)">
   <path d="M 10.3079 20.105 C 10.3079 22.625 10.3079 33.873 10.3079 33.873 L 0.22101 33.873 L 0.22101 50.7086 L 10.3079 50.7086 L 10.3079 100.738 L 31.0286 100.738 L 31.0286 50.71 L 44.9331 50.71 C 44.9331 50.71 46.2353 42.6375 46.8665 33.8109 C 45.0568 33.8109 31.1069 33.8109 31.1069 33.8109 C 31.1069 33.8109 31.1069 24.0165 31.1069 22.2997 C 31.1069 20.5792 33.3661 18.265 35.599 18.265 C 37.8277 18.265 42.5316 18.265 46.8884 18.265 C 46.8884 15.9728 46.8884 8.05274 46.8884 0.738135 C 41.0722 0.738135 34.4553 0.738135 31.5387 0.738135 C 9.79573 0.736972 10.3079 17.5893 10.3079 20.105 Z" id="path"/>
  </g>
  <g id="Bold-M" transform="matrix(1 0 0 1 2316.11 1041)">
   <path d="M 10.6253 20.0504 C 10.6253 22.5704 10.6253 33.8184 10.6253 33.8184 L 0.53841 33.8184 L 0.53841 50.654 L 10.6253 50.654 L 10.6253 100.684 L 31.346 100.684 L 31.346 50.6554 L 45.2505 50.6554 C 45.2505 50.6554 46.5527 42.5829 47.1839 33.7563 C 45.3742 33.7563 31.4243 33.7563 31.4243 33.7563 C 31.4243 33.7563 31.4243 23.9619 31.4243 22.2451 C 31.4243 20.5246 33.6835 18.2104 35.9164 18.2104 C 38.1451 18.2104 42.849 18.2104 47.2058 18.2104 C 47.2058 15.9182 47.2058 7.99814 47.2058 0.683534 C 41.3896 0.683534 34.7727 0.683534 31.8561 0.683534 C 10.1131 0.682372 10.6253 17.5347 10.6253 20.0504 Z" id="path"/>
  </g>
  <g id="Heavy-M" transform="matrix(1 0 0 1 2612.33 1041)">
   <path d="M 10.9811 19.675 C 10.9811 22.2202 10.9811 33.5807 10.9811 33.5807 L 0.793323 33.5807 L 0.793323 50.5847 L 10.9811 50.5847 L 10.9811 101.114 L 31.909 101.114 L 31.909 50.5861 L 45.9525 50.5861 C 45.9525 50.5861 47.2678 42.4328 47.9053 33.518 C 46.0774 33.518 31.9881 33.518 31.9881 33.518 C 31.9881 33.518 31.9881 23.6256 31.9881 21.8917 C 31.9881 20.154 34.2699 17.8166 36.5251 17.8166 C 38.7761 17.8166 43.527 17.8166 47.9274 17.8166 C 47.9274 15.5015 47.9274 7.50223 47.9274 0.114475 C 42.0531 0.114475 35.37 0.114475 32.4242 0.114475 C 10.4638 0.113301 10.9811 17.1342 10.9811 19.675 Z" id="path"/>
  </g>
  <g id="Black-M" transform="matrix(1 0 0 1 2909.6 1041)">
   <path d="M 10.3961 19.5971 C 10.3961 22.1423 10.3961 33.5028 10.3961 33.5028 L 0.208373 33.5028 L 0.208373 50.5068 L 10.3961 50.5068 L 10.3961 101.037 L 31.324 101.037 L 31.324 50.5082 L 45.3676 50.5082 C 45.3676 50.5082 46.6828 42.3549 47.3204 33.4401 C 45.4925 33.4401 31.4031 33.4401 31.4031 33.4401 C 31.4031 33.4401 31.4031 23.5477 31.4031 21.8138 C 31.4031 20.0761 33.6849 17.7387 35.9401 17.7387 C 38.1912 17.7387 42.9421 17.7387 47.3424 17.7387 C 47.3424 15.4236 47.3424 7.42434 47.3424 0.0365877 C 41.4681 0.0365877 34.7851 0.0365877 31.8392 0.0365877 C 9.87884 0.0354136 10.3961 17.0563 10.3961 19.5971 Z" id="path"/>
  </g>
  <g id="Ultralight-L" transform="matrix(1 0 0 1 531.024 1461)">
   <path d="M 12.5264 23.747 C 12.5264 26.8214 12.5264 40.544 12.5264 40.544 L 0.220398 40.544 L 0.220398 61.0834 L 12.5264 61.0834 L 12.5264 122.119 L 37.8056 122.119 L 37.8056 61.0851 L 54.7691 61.0851 C 54.7691 61.0851 56.3578 51.2366 57.1279 40.4682 C 54.92 40.4682 37.9012 40.4682 37.9012 40.4682 C 37.9012 40.4682 37.9012 28.519 37.9012 26.4246 C 37.9012 24.3256 40.6574 21.5022 43.3816 21.5022 C 46.1006 21.5022 51.8393 21.5022 57.1546 21.5022 C 57.1546 18.7057 57.1546 9.04326 57.1546 0.119441 C 50.0589 0.119441 41.9863 0.119441 38.4279 0.119441 C 11.9016 0.118023 12.5264 20.6779 12.5264 23.747 Z" id="path"/>
  </g>
  <g id="Thin-L" transform="matrix(1 0 0 1 827.588 1460)">
   <path d="M 12.5405 24.4163 C 12.5405 27.5159 12.5405 41.351 12.5405 41.351 L 0.133562 41.351 L 0.133562 62.0588 L 12.5405 62.0588 L 12.5405 123.595 L 38.0269 123.595 L 38.0269 62.0605 L 55.1294 62.0605 C 55.1294 62.0605 56.7311 52.1312 57.5076 41.2746 C 55.2816 41.2746 38.1232 41.2746 38.1232 41.2746 C 38.1232 41.2746 38.1232 29.2275 38.1232 27.1158 C 38.1232 24.9997 40.902 22.1531 43.6485 22.1531 C 46.3898 22.1531 52.1756 22.1531 57.5344 22.1531 C 57.5344 19.3337 57.5344 9.59205 57.5344 0.595087 C 50.3806 0.595087 42.2418 0.595087 38.6543 0.595087 C 11.9105 0.593657 12.5405 21.3221 12.5405 24.4163 Z" id="path"/>
  </g>
  <g id="Light-L" transform="matrix(1 0 0 1 1123.03 1459)">
   <path d="M 13.5441 24.828 C 13.5441 27.978 13.5441 42.038 13.5441 42.038 L 0.935438 42.038 L 0.935438 63.0825 L 13.5441 63.0825 L 13.5441 125.619 L 39.4449 125.619 L 39.4449 63.0843 L 56.8255 63.0843 C 56.8255 63.0843 58.4533 52.9936 59.2423 41.9604 C 56.9801 41.9604 39.5428 41.9604 39.5428 41.9604 C 39.5428 41.9604 39.5428 29.7174 39.5428 27.5714 C 39.5428 25.4208 42.3668 22.528 45.1579 22.528 C 47.9438 22.528 53.8237 22.528 59.2697 22.528 C 59.2697 19.6628 59.2697 9.76271 59.2697 0.619455 C 51.9995 0.619455 43.7284 0.619455 40.0825 0.619455 C 12.9038 0.618002 13.5441 21.6834 13.5441 24.828 Z" id="path"/>
  </g>
  <g id="Regular-L" transform="matrix(1 0 0 1 1419.55 1459)">
   <path d="M 13.6069 24.5216 C 13.6069 27.6969 13.6069 41.8694 13.6069 41.8694 L 0.897401 41.8694 L 0.897401 63.0822 L 13.6069 63.0822 L 13.6069 126.119 L 39.7149 126.119 L 39.7149 63.084 L 57.2346 63.084 C 57.2346 63.084 58.8754 52.9126 59.6708 41.7912 C 57.3905 41.7912 39.8136 41.7912 39.8136 41.7912 C 39.8136 41.7912 39.8136 29.4502 39.8136 27.2871 C 39.8136 25.1193 42.6602 22.2033 45.4737 22.2033 C 48.2819 22.2033 54.2088 22.2033 59.6983 22.2033 C 59.6983 19.3151 59.6983 9.33586 59.6983 0.119454 C 52.3699 0.119454 44.0327 0.119454 40.3576 0.119454 C 12.9615 0.117989 13.6069 21.352 13.6069 24.5216 Z" id="path"/>
  </g>
  <g id="Medium-L" transform="matrix(1 0 0 1 1716.92 1458)">
   <path d="M 12.8162 25.1606 C 12.8162 28.3611 12.8162 42.6461 12.8162 42.6461 L 0.00586392 42.6461 L 0.00586392 64.0273 L 12.8162 64.0273 L 12.8162 127.565 L 39.1315 127.565 L 39.1315 64.0291 L 56.7902 64.0291 C 56.7902 64.0291 58.444 53.7769 59.2457 42.5672 C 56.9473 42.5672 39.231 42.5672 39.231 42.5672 C 39.231 42.5672 39.231 30.1283 39.231 27.948 C 39.231 25.763 42.1001 22.8239 44.9359 22.8239 C 47.7664 22.8239 53.7403 22.8239 59.2734 22.8239 C 59.2734 19.9128 59.2734 9.85434 59.2734 0.564793 C 51.8869 0.564793 43.4835 0.564793 39.7793 0.564793 C 12.1658 0.563316 12.8162 21.9658 12.8162 25.1606 Z" id="path"/>
  </g>
  <g id="Semibold-L" transform="matrix(1 0 0 1 2013.36 1460)">
   <path d="M 12.9279 25.2895 C 12.9279 28.5152 12.9279 42.9126 12.9279 42.9126 L 0.016677 42.9126 L 0.016677 64.4622 L 12.9279 64.4622 L 12.9279 128.5 L 39.4504 128.5 L 39.4504 64.464 L 57.2481 64.464 C 57.2481 64.464 58.915 54.1311 59.7229 42.8332 C 57.4065 42.8332 39.5506 42.8332 39.5506 42.8332 C 39.5506 42.8332 39.5506 30.2963 39.5506 28.0988 C 39.5506 25.8966 42.4424 22.9343 45.3005 22.9343 C 48.1533 22.9343 54.1743 22.9343 59.7509 22.9343 C 59.7509 20.0003 59.7509 9.8627 59.7509 0.5 C 52.3062 0.5 43.8366 0.5 40.1033 0.5 C 12.2723 0.498512 12.9279 22.0695 12.9279 25.2895 Z" id="path"/>
  </g>
  <g id="Bold-L" transform="matrix(1 0 0 1 2309.73 1457)">
   <path d="M 13.2697 25.7854 C 13.2697 29.011 13.2697 43.4085 13.2697 43.4085 L 0.358477 43.4085 L 0.358477 64.9581 L 13.2697 64.9581 L 13.2697 128.996 L 39.7922 128.996 L 39.7922 64.9599 L 57.5899 64.9599 C 57.5899 64.9599 59.2568 54.627 60.0647 43.329 C 57.7483 43.329 39.8924 43.329 39.8924 43.329 C 39.8924 43.329 39.8924 30.7922 39.8924 28.5947 C 39.8924 26.3925 42.7842 23.4302 45.6423 23.4302 C 48.4951 23.4302 54.5161 23.4302 60.0927 23.4302 C 60.0927 20.4962 60.0927 10.3586 60.0927 0.995872 C 52.648 0.995872 44.1784 0.995872 40.4451 0.995872 C 12.6141 0.994384 13.2697 22.5654 13.2697 25.7854 Z" id="path"/>
  </g>
  <g id="Heavy-L" transform="matrix(1 0 0 1 2605.95 1457)">
   <path d="M 13.6256 25.402 C 13.6256 28.6529 13.6256 43.1628 13.6256 43.1628 L 0.61344 43.1628 L 0.61344 64.8808 L 13.6256 64.8808 L 13.6256 129.419 L 40.3552 129.419 L 40.3552 64.8826 L 58.292 64.8826 C 58.292 64.8826 59.9719 54.469 60.7862 43.0827 C 58.4516 43.0827 40.4563 43.0827 40.4563 43.0827 C 40.4563 43.0827 40.4563 30.4479 40.4563 28.2333 C 40.4563 26.0139 43.3706 23.0285 46.2511 23.0285 C 49.1261 23.0285 55.1941 23.0285 60.8144 23.0285 C 60.8144 20.0715 60.8144 9.85469 60.8144 0.418849 C 53.3115 0.418849 44.7757 0.418849 41.0132 0.418849 C 12.9648 0.417349 13.6256 22.1569 13.6256 25.402 Z" id="path"/>
  </g>
  <g id="Black-L" transform="matrix(1 0 0 1 2902.22 1456)">
   <path d="M 13.9325 26.0588 C 13.9325 29.3348 13.9325 43.9572 13.9325 43.9572 L 0.819553 43.9572 L 0.819553 65.8435 L 13.9325 65.8435 L 13.9325 130.882 L 40.8694 130.882 L 40.8694 65.8453 L 58.9453 65.8453 C 58.9453 65.8453 60.6381 55.351 61.4587 43.8765 C 59.106 43.8765 40.9712 43.8765 40.9712 43.8765 C 40.9712 43.8765 40.9712 31.1438 40.9712 28.912 C 40.9712 26.6754 43.9082 23.6668 46.8109 23.6668 C 49.7083 23.6668 55.8233 23.6668 61.4871 23.6668 C 61.4871 20.6869 61.4871 10.3909 61.4871 0.88192 C 53.9261 0.88192 45.3242 0.88192 41.5325 0.88192 C 13.2667 0.880408 13.9325 22.7885 13.9325 26.0588 Z" id="path"/>
  </g>
 </g>
 <g id="Guides" transform="matrix(1 0 0 1 0 0)">
  <g fill="#27AAE1" fill-rule="nonzero" id="H-reference" transform="matrix(1 0 0 1 339 625)">
   <path d="M 54.9316 71 L 57.666 71 L 30.5664 0.541 L 28.0762 0.541 L 0.976562 71 L 3.66211 71 L 12.9395 46.5371 L 45.7031 46.5371 L 54.9316 71 Z M 29.1992 3.9102 L 29.4434 3.9102 L 44.8242 44.291 L 13.8184 44.291 L 29.1992 3.9102 Z" id="Shape"/>
  </g>
  <g fill="#27AAE1" fill-rule="nonzero" id="H-reference" transform="matrix(1 0 0 1 339 1055)">
   <path d="M 54.9316 71 L 57.666 71 L 30.5664 0.541 L 28.0762 0.541 L 0.976562 71 L 3.66211 71 L 12.9395 46.5371 L 45.7031 46.5371 L 54.9316 71 Z M 29.1992 3.9102 L 29.4434 3.9102 L 44.8242 44.291 L 13.8184 44.291 L 29.1992 3.9102 Z" id="Shape"/>
  </g>
  <g fill="#27AAE1" fill-rule="nonzero" id="H-reference" transform="matrix(1 0 0 1 339 1485)">
   <path d="M 54.9316 71 L 57.666 71 L 30.5664 0.541 L 28.0762 0.541 L 0.976562 71 L 3.66211 71 L 12.9395 46.5371 L 45.7031 46.5371 L 54.9316 71 Z M 29.1992 3.9102 L 29.4434 3.9102 L 44.8242 44.291 L 13.8184 44.291 L 29.1992 3.9102 Z" id="Shape"/>
  </g>
  <rect fill="#00AEEF" fill-rule="nonzero" height="119.336" id="left-margin" opacity="0.4" transform="matrix(1 0 0 1 263 625)" width="12.4512" x="1143.88" y="405.79"/>
  <rect fill="#00AEEF" fill-rule="nonzero" height="119.336" id="right-margin" opacity="0.4" transform="matrix(1 0 0 1 263 625)" width="12.4512" x="1217.36" y="405.79"/>
  <line id="Baseline-S" style="fill:none;stroke:#27AAE1;opacity:1;stroke-width:0.577;" x1="263" x2="3036" y1="696" y2="696"/>
  <line id="Baseline-M" style="fill:none;stroke:#27AAE1;opacity:1;stroke-width:0.577;" x1="263" x2="3036" y1="1126" y2="1126"/>
  <line id="Baseline-L" style="fill:none;stroke:#27AAE1;opacity:1;stroke-width:0.577;" x1="263" x2="3036" y1="1556" y2="1556"/>
  <line id="Capline-S" style="fill:none;stroke:#27AAE1;opacity:1;stroke-width:0.577;" x1="263" x2="3036" y1="625.541" y2="625.541"/>
  <line id="Capline-M" style="fill:none;stroke:#27AAE1;opacity:1;stroke-width:0.577;" x1="263" x2="3036" y1="1055.54" y2="1055.54"/>
  <line id="Capline-L" style="fill:none;stroke:#27AAE1;opacity:1;stroke-width:0.577;" x1="263" x2="3036" y1="1485.54" y2="1485.54"/>
 </g>
</svg>
